<svg width="60" height="60" viewBox="0 0 60 60" fill="none" xmlns="http://www.w3.org/2000/svg">
<circle cx="30" cy="30" r="30" fill="#3C9CEB"/>
<g filter="url(#filter0_d_513_13)">
<path d="M30 31.5C33.7266 31.5 36.75 28.4766 36.75 24.75C36.75 21.0234 33.7266 18 30 18C26.2734 18 23.25 21.0234 23.25 24.75C23.25 28.4766 26.2734 31.5 30 31.5ZM36 33H33.4172C32.3766 33.4781 31.2188 33.75 30 33.75C28.7812 33.75 27.6281 33.4781 26.5828 33H24C20.6859 33 18 35.6859 18 39V39.75C18 40.9922 19.0078 42 20.25 42H39.75C40.9922 42 42 40.9922 42 39.75V39C42 35.6859 39.3141 33 36 33Z" fill="white"/>
</g>
<path d="M33.25 38.8213V39C33.25 39.3797 33.5626 39.6787 33.9375 39.6787H34.8125C35.1874 39.6787 35.5 39.3797 35.5 39V38.8213H38.5V39C38.5 39.3797 38.8126 39.6787 39.1875 39.6787H40.0625C40.4374 39.6787 40.75 39.3797 40.75 39V38.8213H43.75V41.1426C43.75 41.473 43.475 41.75 43.125 41.75H30.875C30.525 41.75 30.25 41.473 30.25 41.1426V38.8213H33.25ZM34.8125 30.25H39.1875C39.7792 30.25 40.25 30.7189 40.25 31.2861V33.6787H41.8877C42.0551 33.6787 42.2143 33.7442 42.3311 33.8584L43.5684 35.0703C43.685 35.1845 43.75 35.3389 43.75 35.498V37.4639H40.75V37.2861C40.75 36.9064 40.4374 36.6074 40.0625 36.6074H39.1875C38.8126 36.6074 38.5 36.9064 38.5 37.2861V37.4639H35.5V37.2861C35.5 36.9064 35.1874 36.6074 34.8125 36.6074H33.9375C33.5626 36.6074 33.25 36.9064 33.25 37.2861V37.4639H30.25V35.498C30.25 35.3386 30.3151 35.1845 30.4316 35.0703L31.6689 33.8584L31.668 33.8574C31.7851 33.743 31.945 33.6787 32.1123 33.6787H33.75V31.2861C33.75 30.7189 34.2208 30.25 34.8125 30.25ZM35 33.6787H39V31.4639H35V33.6787Z" fill="#3C9CEB" stroke="white" stroke-width="0.5"/>
<defs>
<filter id="filter0_d_513_13" x="14" y="14" width="32" height="32" filterUnits="userSpaceOnUse" color-interpolation-filters="sRGB">
<feFlood flood-opacity="0" result="BackgroundImageFix"/>
<feColorMatrix in="SourceAlpha" type="matrix" values="0 0 0 0 0 0 0 0 0 0 0 0 0 0 0 0 0 0 127 0" result="hardAlpha"/>
<feOffset/>
<feGaussianBlur stdDeviation="2"/>
<feComposite in2="hardAlpha" operator="out"/>
<feColorMatrix type="matrix" values="0 0 0 0 1 0 0 0 0 1 0 0 0 0 1 0 0 0 1 0"/>
<feBlend mode="normal" in2="BackgroundImageFix" result="effect1_dropShadow_513_13"/>
<feBlend mode="normal" in="SourceGraphic" in2="effect1_dropShadow_513_13" result="shape"/>
</filter>
</defs>
</svg>
