<svg width="60" height="60" viewBox="0 0 60 60" fill="none" xmlns="http://www.w3.org/2000/svg">
<g filter="url(#filter0_d_513_9)">
<path d="M30 31.5C33.7266 31.5 36.75 28.4766 36.75 24.75C36.75 21.0234 33.7266 18 30 18C26.2734 18 23.25 21.0234 23.25 24.75C23.25 28.4766 26.2734 31.5 30 31.5ZM36 33H33.4172C32.3766 33.4781 31.2188 33.75 30 33.75C28.7812 33.75 27.6281 33.4781 26.5828 33H24C20.6859 33 18 35.6859 18 39V39.75C18 40.9922 19.0078 42 20.25 42H39.75C40.9922 42 42 40.9922 42 39.75V39C42 35.6859 39.3141 33 36 33Z" fill="#EDEDED"/>
</g>
<path d="M32.5508 35.2969C32.5508 36.4393 33.4664 37.375 34.6006 37.375C35.7348 37.375 36.6504 36.4393 36.6504 35.2969V34.125H40.2002C40.391 34.125 40.5508 34.281 40.5508 34.4844V35.7031C40.5508 35.9065 40.391 36.0625 40.2002 36.0625H39.751V37.9375C39.751 38.2526 39.501 38.5 39.2002 38.5H38.5508V38.75C38.5508 39.512 37.941 40.125 37.2002 40.125H33.7178L33.6592 40.1602L31.0742 41.6758C30.8127 41.8283 30.4768 41.7384 30.3252 41.4707L28.3252 37.9512V37.9502L28.2783 37.8457C28.1963 37.5964 28.2964 37.315 28.5264 37.1807H28.5273L30.5273 36.0078L30.6504 35.9355V34.5908C30.6504 34.1079 30.9014 33.6589 31.3076 33.4131H31.3086L32.5508 32.6543V35.2969ZM40.9268 29.3242C41.1883 29.1716 41.5242 29.2616 41.6758 29.5293L43.6758 33.0488C43.8099 33.2861 43.7564 33.5791 43.5645 33.7529L43.4736 33.8193L41.8506 34.7705V34.4844C41.8506 33.5654 41.1144 32.8125 40.2002 32.8125H35.3506V35.2969C35.3506 35.7237 35.0113 36.0625 34.6006 36.0625C34.1898 36.0625 33.8506 35.7237 33.8506 35.2969V32.0898C33.8506 31.8933 33.9491 31.7131 34.1084 31.6133L34.1094 31.6123L34.9453 31.082L34.9463 31.083C35.1624 30.9474 35.4086 30.8751 35.6602 30.875H38.2832L38.3418 30.8398L40.9268 29.3242Z" fill="#EDEDED" stroke="white" stroke-width="0.5"/>
<defs>
<filter id="filter0_d_513_9" x="14" y="14" width="32" height="32" filterUnits="userSpaceOnUse" color-interpolation-filters="sRGB">
<feFlood flood-opacity="0" result="BackgroundImageFix"/>
<feColorMatrix in="SourceAlpha" type="matrix" values="0 0 0 0 0 0 0 0 0 0 0 0 0 0 0 0 0 0 127 0" result="hardAlpha"/>
<feOffset/>
<feGaussianBlur stdDeviation="2"/>
<feComposite in2="hardAlpha" operator="out"/>
<feColorMatrix type="matrix" values="0 0 0 0 1 0 0 0 0 1 0 0 0 0 1 0 0 0 1 0"/>
<feBlend mode="normal" in2="BackgroundImageFix" result="effect1_dropShadow_513_9"/>
<feBlend mode="normal" in="SourceGraphic" in2="effect1_dropShadow_513_9" result="shape"/>
</filter>
</defs>
</svg>
