<svg width="60" height="60" viewBox="0 0 60 60" fill="none" xmlns="http://www.w3.org/2000/svg">
<g filter="url(#filter0_d_513_12)">
<path d="M30 31.5C33.7266 31.5 36.75 28.4766 36.75 24.75C36.75 21.0234 33.7266 18 30 18C26.2734 18 23.25 21.0234 23.25 24.75C23.25 28.4766 26.2734 31.5 30 31.5ZM36 33H33.4172C32.3766 33.4781 31.2188 33.75 30 33.75C28.7812 33.75 27.6281 33.4781 26.5828 33H24C20.6859 33 18 35.6859 18 39V39.75C18 40.9922 19.0078 42 20.25 42H39.75C40.9922 42 42 40.9922 42 39.75V39C42 35.6859 39.3141 33 36 33Z" fill="#EDEDED"/>
</g>
<path d="M30.4688 31.1504H31.4062C31.5855 31.1504 31.7244 31.2909 31.7246 31.458V40.3164H44.5312C44.7106 40.3164 44.8496 40.4578 44.8496 40.625V41.542C44.8494 41.7091 44.7105 41.8496 44.5312 41.8496H30.9375C30.4995 41.8496 30.1504 41.5032 30.1504 41.083V31.458C30.1506 31.2909 30.2895 31.1504 30.4688 31.1504ZM34.125 35.7334H35.25C35.2961 35.7334 35.3544 35.7569 35.4033 35.8047C35.4525 35.8527 35.4746 35.9085 35.4746 35.9502V37.9668C35.4746 38.0084 35.4522 38.0634 35.4033 38.1113C35.3544 38.1592 35.2961 38.1836 35.25 38.1836H34.125C34.0789 38.1836 34.0206 38.1592 33.9717 38.1113C33.9228 38.0634 33.9004 38.0084 33.9004 37.9668V35.9502C33.9004 35.9085 33.9225 35.8527 33.9717 35.8047C34.0206 35.7569 34.0789 35.7334 34.125 35.7334ZM36.9375 32.0664H38.0625C38.1086 32.0664 38.1669 32.0908 38.2158 32.1387C38.2647 32.1866 38.2871 32.2416 38.2871 32.2832V37.9668C38.2871 38.0084 38.2647 38.0634 38.2158 38.1113C38.1669 38.1592 38.1086 38.1836 38.0625 38.1836H36.9375C36.8914 38.1836 36.8331 38.1592 36.7842 38.1113C36.7353 38.0634 36.7129 38.0084 36.7129 37.9668V32.2832C36.7129 32.2416 36.7353 32.1866 36.7842 32.1387C36.8331 32.0908 36.8914 32.0664 36.9375 32.0664ZM39.75 33.9004H40.875C40.9211 33.9004 40.9794 33.9238 41.0283 33.9717C41.0772 34.0195 41.0994 34.0746 41.0996 34.1162V37.9668C41.0996 38.0084 41.0772 38.0634 41.0283 38.1113C40.9794 38.1592 40.9211 38.1836 40.875 38.1836H39.75C39.7039 38.1836 39.6456 38.1592 39.5967 38.1113C39.5478 38.0634 39.5254 38.0084 39.5254 37.9668V34.1162C39.5256 34.0746 39.5478 34.0195 39.5967 33.9717C39.6456 33.9238 39.7039 33.9004 39.75 33.9004ZM42.5625 31.1504H43.6875C43.7336 31.1504 43.7919 31.1738 43.8408 31.2217C43.8897 31.2695 43.9119 31.3246 43.9121 31.3662V37.9668C43.9121 38.0084 43.8897 38.0634 43.8408 38.1113C43.7919 38.1592 43.7336 38.1836 43.6875 38.1836H42.5625C42.5164 38.1836 42.4581 38.1592 42.4092 38.1113C42.3603 38.0634 42.3379 38.0084 42.3379 37.9668V31.3662C42.3381 31.3246 42.3603 31.2695 42.4092 31.2217C42.4581 31.1738 42.5164 31.1504 42.5625 31.1504Z" fill="#EDEDED" stroke="white" stroke-width="0.3"/>
<defs>
<filter id="filter0_d_513_12" x="14" y="14" width="32" height="32" filterUnits="userSpaceOnUse" color-interpolation-filters="sRGB">
<feFlood flood-opacity="0" result="BackgroundImageFix"/>
<feColorMatrix in="SourceAlpha" type="matrix" values="0 0 0 0 0 0 0 0 0 0 0 0 0 0 0 0 0 0 127 0" result="hardAlpha"/>
<feOffset/>
<feGaussianBlur stdDeviation="2"/>
<feComposite in2="hardAlpha" operator="out"/>
<feColorMatrix type="matrix" values="0 0 0 0 1 0 0 0 0 1 0 0 0 0 1 0 0 0 1 0"/>
<feBlend mode="normal" in2="BackgroundImageFix" result="effect1_dropShadow_513_12"/>
<feBlend mode="normal" in="SourceGraphic" in2="effect1_dropShadow_513_12" result="shape"/>
</filter>
</defs>
</svg>
