<svg width="60" height="60" viewBox="0 0 60 60" fill="none" xmlns="http://www.w3.org/2000/svg">
<circle cx="30" cy="30" r="30" fill="#3D50D7"/>
<g filter="url(#filter0_d_513_16)">
<path d="M30 31.5C33.7266 31.5 36.75 28.4766 36.75 24.75C36.75 21.0234 33.7266 18 30 18C26.2734 18 23.25 21.0234 23.25 24.75C23.25 28.4766 26.2734 31.5 30 31.5ZM36 33H33.4172C32.3766 33.4781 31.2188 33.75 30 33.75C28.7812 33.75 27.6281 33.4781 26.5828 33H24C20.6859 33 18 35.6859 18 39V39.75C18 40.9922 19.0078 42 20.25 42H39.75C40.9922 42 42 40.9922 42 39.75V39C42 35.6859 39.3141 33 36 33Z" fill="white"/>
</g>
<path d="M37.875 30.1504C40.077 30.1504 41.8496 31.9229 41.8496 34.125C41.8496 36.3203 40.0703 38.0996 37.875 38.0996C37.6216 38.0996 37.374 38.0756 37.1338 38.0303L37.0498 38.0146L36.9932 38.0781L36.4307 38.7119C36.392 38.7553 36.3441 38.7897 36.291 38.8135C36.2379 38.8373 36.1802 38.8496 36.1221 38.8496H35.0996V39.9375C35.0996 40.1653 34.9153 40.3496 34.6875 40.3496H33.5996V41.4375C33.5996 41.6653 33.4153 41.8496 33.1875 41.8496H30.5625C30.3347 41.8496 30.1504 41.6653 30.1504 41.4375V39.6084C30.1504 39.4991 30.1933 39.3938 30.2705 39.3164L34.0635 35.5244L34.1279 35.459L34.0996 35.3711C33.9704 34.9793 33.9004 34.5604 33.9004 34.125C33.9004 31.9297 35.6797 30.1504 37.875 30.1504ZM39 31.7246C38.2958 31.7246 37.7246 32.2958 37.7246 33C37.7246 33.7042 38.2958 34.2754 39 34.2754C39.7042 34.2754 40.2754 33.7042 40.2754 33C40.2754 32.2958 39.7042 31.7246 39 31.7246Z" fill="#3D50D7" stroke="white" stroke-width="0.3"/>
<defs>
<filter id="filter0_d_513_16" x="14" y="14" width="32" height="32" filterUnits="userSpaceOnUse" color-interpolation-filters="sRGB">
<feFlood flood-opacity="0" result="BackgroundImageFix"/>
<feColorMatrix in="SourceAlpha" type="matrix" values="0 0 0 0 0 0 0 0 0 0 0 0 0 0 0 0 0 0 127 0" result="hardAlpha"/>
<feOffset/>
<feGaussianBlur stdDeviation="2"/>
<feComposite in2="hardAlpha" operator="out"/>
<feColorMatrix type="matrix" values="0 0 0 0 1 0 0 0 0 1 0 0 0 0 1 0 0 0 1 0"/>
<feBlend mode="normal" in2="BackgroundImageFix" result="effect1_dropShadow_513_16"/>
<feBlend mode="normal" in="SourceGraphic" in2="effect1_dropShadow_513_16" result="shape"/>
</filter>
</defs>
</svg>
